<?xml version="1.0" encoding="utf-8"?>
<!-- Generator: Adobe Illustrator 27.9.0, SVG Export Plug-In . SVG Version: 6.00 Build 0)  -->
<svg version="1.1" id="Layer_1" xmlns="http://www.w3.org/2000/svg" xmlns:xlink="http://www.w3.org/1999/xlink" x="0px" y="0px"
	 viewBox="0 0 1080 356" style="enable-background:new 0 0 1080 356;" xml:space="preserve">
<style type="text/css">
	.st0{fill:#FFFFFF;}
	.st1{fill:#0080FF;}
</style>
<rect x="-55" y="-39" class="st0" width="1166" height="441"/>
<g>
	<path class="st1" d="M121.5,245.6v-27.1c28.7,0,50.9-28.3,39.8-58.3c-4.1-11.3-13-20.1-24.2-24.2c-22.1-8.3-46.8,2.9-55.1,25
		c-1.8,4.7-2.7,9.8-2.7,14.8H52.2c0-45.2,43.9-80.9,91.9-66.1c20.9,6.6,37.3,23,43.9,43.9C202.8,201.7,167.1,245.6,121.5,245.6z"/>
	<path class="st1" d="M122,218.5H94.9v-26.7H122 M94.9,239.5H74.3v-20.9h20.5V239.5 M74.3,218.5H57.1v-17.2h17.2 M299.7,146.7
		c-7.8-5.3-18.1-8.2-29.6-8.2h-25v80.1h25c11.5,0,21.3-2.9,29.6-8.6c4.5-3.3,8-7.7,10.3-12.7c2.5-5.3,3.7-11.9,3.7-18.9
		c0-7-1.2-13.5-3.7-18.5C307.5,153.7,304.2,149.6,299.7,146.7L299.7,146.7z M259.9,152h7.8c8.6,0,16,1.6,21.7,5.3
		c6.2,3.7,9.1,10.7,9.1,20.9s-3.3,17.7-9.1,21.8c-5.3,3.3-12.3,5.3-21.3,5.3h-8.2V152 M331.3,137.3c-2.3-0.1-4.5,0.8-6.2,2.5
		c-1.9,1.5-3,3.8-2.9,6.2c0,4.8,3.9,8.6,8.6,8.6c4.8,0,8.6-3.9,8.6-8.6c0.1-2.3-0.8-4.5-2.5-6.2
		C335.8,138.1,333.7,137.3,331.3,137.3 M323.8,161.9h14.4v56.2h-14.3L323.8,161.9 M389.6,166.8c-4.1-3.7-9.1-6.2-14.4-6.2
		c-7.3-0.2-14.4,2.8-19.3,8.2c-5.1,5.4-7.9,12.7-7.8,20.1c0,7.8,2.5,14.8,7.4,20.1c4.9,5.3,11.5,7.8,19.3,7.8c5,0.1,9.9-1.5,14-4.5
		v1.2c0,4.5-1.2,8.2-3.7,10.7c-2.5,2.5-5.8,3.7-10.3,3.7c-6.6,0-10.7-2.5-15.6-9.4l-9.9,9.4l0.4,0.4c2.1,2.9,5.3,5.8,9.4,8.6
		c4.1,2.9,9.4,4.1,15.6,4.1c8.6,0,15.2-2.5,20.1-7.8c4.9-5.3,7.8-11.9,7.8-20.5v-51h-13.9v4.9H389.6 M385.9,200.1
		c-2.5,2.9-5.8,4.1-9.9,4.1c-4.1,0-7.4-1.2-9.9-4.1s-3.7-6.6-3.7-11.1c0-4.5,1.3-8.2,3.8-11.1s5.8-4.1,9.9-4.1
		c4.1,0,7.4,1.2,9.9,4.1s3.7,6.6,3.7,11.1S388.4,197.2,385.9,200.1 M415.9,161.9h14.4v56.2h-14.5L415.9,161.9 M422.8,137.3
		c-4.6-0.1-8.5,3.6-8.6,8.2c0,0.1,0,0.3,0,0.4c0,4.8,3.9,8.6,8.6,8.6c4.8,0,8.6-3.9,8.6-8.6c0.1-4.6-3.6-8.5-8.2-8.6
		C423.1,137.3,423,137.3,422.8,137.3 M461,146.7H447v15.2h-8.2v12.7h8.2V198c0,7.4,1.6,12.7,4.5,15.6c2.9,2.9,8.2,4.5,15.2,4.5
		c2.3,0.1,4.7-0.1,7-0.4h0.8V205l-4.9,0.4c-3.3,0-5.8-0.4-6.6-1.6c-1.2-1.2-1.6-3.7-1.6-7.4V175h13.1v-12.7h-13.1L461,146.7
		 M540.6,138.5H555v80.1h-14.3L540.6,138.5 M698.2,198.4c-2.1,2.4-4.4,4.6-7,6.6c-2.2,1.4-4.8,2.1-7.4,2.1c-3.9,0-7.6-1.7-10.2-4.6
		c-2.9-3.3-4.1-7-4.1-11.9s1.2-8.6,4.1-11.9c2.5-3,6.3-4.7,10.3-4.5c4.5,0,9.4,2.9,13.5,7.8l9.4-9.1c-6.2-7.8-14-11.5-23.4-11.5
		c-7.8,0-14.4,2.9-20.1,8.6c-5.4,5.6-8.3,13.2-8.2,20.9c0,8.2,2.9,15.6,8.2,20.9c5.2,5.6,12.5,8.8,20.1,8.6
		c10.3,0,18.5-4.5,24.2-12.7L698.2,198.4 M756.1,170.1c-2.2-2.8-5-5.1-8.2-6.6c-3.7-1.7-7.8-2.6-11.9-2.5c-7.8,0-14.4,2.9-19.3,8.6
		c-4.7,6-7.1,13.4-7,20.9c0,8.6,2.5,15.6,7.8,20.9c5.3,5.3,11.9,8.2,20.5,8.2c9.4,0,17.2-3.7,23.4-11.5l0.4-0.4l-9.4-9.1
		c-0.8,1.2-2.1,2.1-3.3,3.3c-1.2,1.2-2.6,2.2-4.1,2.9c-2.1,1.2-4.5,1.7-7,1.6c-3.6,0.1-7.1-1.1-9.9-3.3c-2.5-2.1-3.7-4.9-4.1-8.6
		h37.8v-5.3c0.1-3.6-0.5-7.3-1.6-10.7c-0.6-3.2-2-6.2-4.1-8.6 M725.3,183.2c0.6-2.5,1.9-4.8,3.7-6.6c2-2,4.7-3,7.4-2.9
		c3.3,0,6.2,0.8,7.8,2.9c1.6,1.6,2.5,4.1,2.9,6.6H725.3 M810.7,166.4c-4.1-3.7-10.3-5.3-17.6-5.3c-4.5,0.1-9,1.1-13.1,2.9
		c-3.7,2.1-7.4,4.9-9.4,9.1l9.1,8.6c3.7-6.2,7.8-8.2,13.5-8.2c2.7-0.1,5.3,0.8,7.4,2.5c1.9,1.5,3,3.8,2.9,6.2v2.9
		c-3.3-1.1-6.8-1.7-10.3-1.6c-7,0-12.7,1.6-17.2,4.9c-4.5,3.3-6.6,8.2-6.6,14c0,5.3,1.6,9.4,5.3,12.7c3.7,3.3,8.2,4.5,13.5,4.5
		s10.3-2.1,15.2-5.8v4.5h14V182C817.3,175.4,815.3,170.1,810.7,166.4 M785.7,196.8c1.6-1.2,3.7-1.6,6.6-1.6
		c3.6,0.1,7.2,0.8,10.7,2.1v5.3c-3.4,3-7.8,4.6-12.3,4.5c-2.5,0-4.5-0.4-5.8-1.6c-1.3-1.2-2.1-2.5-2.1-4.1
		C783.1,199.4,784.1,197.8,785.7,196.8 M871.8,167.2c-4.1-4.5-9.4-6.6-16.4-6.6c-5.7,0-10.3,1.6-13.5,4.9v-3.3h-14v56.2h14.4v-31.2
		c0-4.1,0.8-7.8,2.9-10.3c2-2.4,5.1-3.8,8.2-3.7c2.9-0.1,5.6,1.1,7.4,3.3c1.9,2.6,2.9,5.8,2.9,9.1v32.8H878v-32.9
		C877.6,177.9,875.5,171.7,871.8,167.2 M523,166.4c-4.1-3.7-10.3-5.3-17.6-5.3c-4.5,0.1-9,1.1-13.1,2.9c-3.7,2.1-7.4,4.9-9.4,9.1
		l9.1,8.6c3.7-6.2,7.8-8.2,13.5-8.2c2.7-0.1,5.3,0.8,7.4,2.5c1.9,1.5,3,3.8,2.9,6.2v2.9c-3.3-1.1-6.8-1.7-10.3-1.6
		c-7,0-12.7,1.6-17.2,4.9s-6.6,8.2-6.6,14c0,5.3,1.6,9.4,5.3,12.7c3.7,3.3,8.2,4.5,13.5,4.5c5.3,0,10.3-2.1,15.2-5.8v4.5h14V182
		C529.6,175.4,527.1,170.1,523,166.4 M497.5,196.8c1.6-1.2,3.7-1.6,6.6-1.6c3.6,0.1,7.2,0.8,10.7,2.1v5.3c-3.4,3-7.8,4.6-12.3,4.5
		c-2.5,0-4.5-0.4-5.8-1.6c-1.3-1.2-2.1-2.5-2.1-4.1C495.3,199.6,496.3,198,497.5,196.8 M606.3,219.8c-22.7,0-41.1-18.4-41.1-41
		s18.4-41.1,41-41.1c22.7,0,41.1,18.4,41.1,41c0,0,0,0,0,0C647.3,201.3,629,219.7,606.3,219.8 M606.3,151.6
		c-14.7,0-26.7,11.9-26.7,26.6c0,14.7,11.9,26.7,26.6,26.7c14.7,0,26.7-11.9,26.7-26.6c0,0,0,0,0,0
		C633,163.6,621.1,151.7,606.3,151.6C606.4,151.6,606.3,151.6,606.3,151.6"/>
</g>
<rect x="750.5" y="-59.5" transform="matrix(0.7071 0.7071 -0.7071 0.7071 339.1229 -686.7151)" class="st1" width="496" height="251"/>
<g>
	<path class="st0" d="M936.5,69.3c-6.5-0.6-11.3-4-11.5-10.2h8.7c0.2,2,1.2,3.2,2.8,3.7v-7.6c-5.1-1.3-11.6-2.8-11.6-10.3
		c0-6,5-9.6,11.6-10V31h3.1v3.9c6.6,0.5,10.8,3.9,11.2,10H942c-0.2-1.8-1.1-2.9-2.4-3.4V49c5.1,1.4,11.7,2.8,11.7,10.3
		c0,5.2-4.1,9.7-11.7,10.1v3.9h-3.1V69.3z M936.5,48v-6.7c-1.8,0.3-2.9,1.3-2.9,3.2C933.6,46.2,934.8,47.2,936.5,48z M939.6,56.1
		v6.8c1.9-0.3,3.1-1.6,3.1-3.4C942.7,57.8,941.5,56.8,939.6,56.1z"/>
	<path class="st0" d="M956.3,62.4c7.4-6.1,15.4-12.2,15.4-18.1c0-2.5-1.2-4.2-3.6-4.2c-2.4,0-3.9,1.9-3.9,5.2h-7.9
		c0.2-8.5,5.8-12.1,12.1-12.1c8,0,11.5,4.7,11.5,10.6c0,7.7-6.9,13.8-12.4,18.1h13v6.7h-24.1V62.4z"/>
	<path class="st0" d="M997.5,33.3c10,0,13.5,7.5,13.5,17.8c0,10.4-3.5,17.9-13.5,17.9S984,61.4,984,51
		C984,40.8,987.5,33.3,997.5,33.3z M997.5,40.9c-4.8,0-5.4,4.7-5.4,10.1c0,5.6,0.6,10.2,5.4,10.2s5.4-4.6,5.4-10.2
		C1002.9,45.6,1002.3,40.9,997.5,40.9z"/>
	<path class="st0" d="M1028.8,33.3c10,0,13.5,7.5,13.5,17.8c0,10.4-3.5,17.9-13.5,17.9s-13.5-7.5-13.5-17.9
		C1015.3,40.8,1018.8,33.3,1028.8,33.3z M1028.8,40.9c-4.8,0-5.4,4.7-5.4,10.1c0,5.6,0.6,10.2,5.4,10.2c4.8,0,5.4-4.6,5.4-10.2
		C1034.2,45.6,1033.6,40.9,1028.8,40.9z"/>
	<path class="st0" d="M925.7,92.5c8,0,14.1,4.5,16,11.8h-9c-1.4-2.9-3.9-4.3-7.1-4.3c-5,0-8.5,3.7-8.5,9.7s3.5,9.7,8.5,9.7
		c3.1,0,5.7-1.4,7.1-4.3h9c-1.9,7.3-8,11.8-16,11.8c-9.9,0-16.9-7.1-16.9-17.1S915.8,92.5,925.7,92.5z"/>
	<path class="st0" d="M954.9,126.6h-8.2V99.8h8.2v4.5c1.9-2.8,4.8-4.8,8.4-4.8v8.7h-2.3c-3.9,0-6.1,1.3-6.1,6V126.6z"/>
	<path class="st0" d="M979.2,127c-7.9,0-13.5-5.3-13.5-13.8c0-8.5,5.6-13.8,13.5-13.8c7.8,0,13.3,5.2,13.3,13.3c0,0.8,0,1.6-0.1,2.4
		h-18.6c0.3,3.5,2.4,5.1,5.1,5.1c2.3,0,3.6-1.2,4.3-2.6h8.7C990.6,123,985.8,127,979.2,127z M973.8,110.6h10.3c0-2.9-2.3-4.6-5-4.6
		C976.4,106,974.3,107.7,973.8,110.6z"/>
	<path class="st0" d="M1007,99.5c3.6,0,6.6,1.6,8.3,4.1V91.1h8.2v35.5h-8.2v-3.8c-1.5,2.4-4.3,4.2-8.3,4.2
		c-6.6,0-11.8-5.4-11.8-13.8C995.2,104.7,1000.4,99.5,1007,99.5z M1009.4,106.6c-3.1,0-5.9,2.3-5.9,6.6s2.8,6.7,5.9,6.7
		c3.1,0,5.9-2.4,5.9-6.6S1012.5,106.6,1009.4,106.6z"/>
	<path class="st0" d="M1028.6,92.6c0-2.5,2-4.5,4.9-4.5c2.9,0,4.8,2,4.8,4.5c0,2.4-2,4.4-4.8,4.4
		C1030.6,97.1,1028.6,95.1,1028.6,92.6z M1029.4,99.8h8.2v26.8h-8.2V99.8z"/>
	<path class="st0" d="M1044.9,106.7h-3.3v-6.8h3.3v-6.5h8.2v6.5h5.4v6.8h-5.4v10.8c0,1.6,0.7,2.3,2.5,2.3h2.9v7h-4.2
		c-5.6,0-9.5-2.4-9.5-9.3V106.7z"/>
</g>
</svg>
