<?xml version="1.0" encoding="UTF-8"?>
<svg id="Layer_2" xmlns="http://www.w3.org/2000/svg" viewBox="0 0 285.63 270.25">
  <g id="Layer_1-2">
    <g>
      <g>
        <path
          d="M241.18,79.6c-18.01-10.64-35.82-14.19-41.87-15.15-11.26-7.19-24.59-11.51-38.12-12.85-.16-1.88-.21-3.77-.05-5.67,.6-10.28,5-20.42,11.68-28.23,1.52-1.53,1.73-4,.37-5.75-.01-.01-1.55-2-1.55-2.01-1.69-2.01-3.44-3.85-5.57-5.47-3.08-2.41-10.28-6.37-13.95-3.38-7.03,5.87-13.04,13.73-16.89,22.43-.92-1.33-1.89-2.62-2.97-3.88-7.82-9.36-21.45-13-32.93-8.87-12.23,4.1-18.28,19.17-13.23,30.85,4.4,10.78,16.98,14.09,27.12,9.28,1.56-.72,2.93-1.71,4.1-2.86,.12,1.49,.19,3,.24,4.52-11.14,1.94-21.91,5.94-31.25,11.91-6.05,.96-23.86,4.5-41.87,15.15C24.18,91.59,0,115.1,0,159.03c0,33.5,10.15,58.56,30.16,74.49,13.81,10.99,32.13,17.58,55.88,20.13,16.32,11.36,36.81,16.74,56.77,16.6h.12c19.79,0,40.44-5.12,56.76-16.61,23.7-2.56,41.99-9.14,55.77-20.11,20.01-15.93,30.16-40.99,30.16-74.49,0-43.93-24.18-67.44-44.45-79.43ZM110.4,31.03c-.34,2.05-1.51,5.22-3.84,5.24-.53,0-1.32-.03-1.7-.39-1.2-1.62-.33-5.14,.99-6.65,.83-1.47,4.55-2.28,4.55,1.8Z"
          fill="#491800"/>
        <path
          d="M162.49,13.36c-.33-.3-.83-.34-1.21-.1-5.36,3.4-8.13,7.82-8.13,7.82,0,0,2.86-6.51,5.75-8.81,.56-.44,.49-1.32-.12-1.68-.45-.26-.89-.48-1.33-.67-.52-.22-1.13-.13-1.55,.25-3.72,3.43-7.08,7.25-9.8,11.53-4.39,6.42-7.06,14.07-9.47,21.43-.84,3.4-5.78,2.9-5.87-.6,.05-1.99,.23-3.99,.55-5.97,.21-1.3,.11-2.62-.36-3.85l-.04-.11c-2.21-5.56-6.36-10.73-11.61-13.59-10.48-5.68-26.13-1.96-27.77,11.33-1.35,9.21,4.89,17.15,14.61,15.47,2.16-.31,4.11-1.06,5.62-2.24-.41,.2-.84,.39-1.28,.54-9.66,2.83-16.39-5.14-13.46-14.27,1.97-7.54,9.13-10.2,15.29-8.3,0,0,0,0,.01,0,.01,0,.02,0,.04,.01,3.09,.96,5.92,3.05,7.7,6.28,.07,.11,.12,.23,.18,.35,4.08,6.5,5.65,16.09,6.42,23.22,2.97-.96,21.35-.44,25.2-.26-.1-1.94-.11-3.88,.07-5.81,.51-8.26,3.16-16.39,7.16-23.59,1.23-2.13,2.52-4.18,3.96-6.14,.41-.57,.38-1.36-.13-1.84-.14-.13-.28-.26-.42-.39Z"
          fill="#9ee615"/>
        <path
          d="M276.3,159.03c0,30.52-8.96,53.12-26.64,67.19-9.64,7.67-21.9,12.97-37.21,16.07,9.31-10.31,16.04-22.93,18.61-36.62,.45-3.02-3.88-4.02-4.8-1.13-2.7,8.49-7.26,16.66-12.79,23.63-5.28,6.77-11.67,12.42-18.81,16.89-.37,.17-.73,.4-1.05,.67-7.46,4.52-15.71,7.75-24.3,9.63-8.62,1.96-17.54,2.74-26.51,2.72-17.66,.05-35.61-3.08-50.78-12.32-.33-.29-.72-.53-1.13-.72-14.64-9.15-26.1-23.91-31.49-40.35-.79-3.04-5.3-2.12-4.85,.99,1.76,9.79,5.81,18.8,11.19,27.11,2.2,3.4,4.64,6.55,7.3,9.48-15.25-3.09-27.47-8.39-37.09-16.04-17.68-14.07-26.64-36.67-26.64-67.19s13.32-55.59,39.62-71.24c7.62-4.54,15.29-7.7,21.89-9.88-5.14,6.07-9.19,13.15-11.74,21.23-1.24,3.8,4.06,6.1,6.01,2.64,3.58-6.93,7.94-13.37,13.59-18.76,16.72-16.25,41.02-21.67,63.73-22.09,.13,0,.24-.03,.36-.03,.07,0,.13,.03,.21,.03,3.84,0,7.87,.25,11.74,.64,.63,.07,1.27,.13,1.9,.21,.11,.01,.21,.03,.32,.04,12.67,1.51,25.26,4.81,36.37,11.02,11.83,6.58,21.19,16.84,27.2,28.93,1.97,3.48,7.23,1.16,6.02-2.64-2.54-8.09-6.59-15.16-11.74-21.23,6.59,2.18,14.27,5.34,21.89,9.88,26.3,15.65,39.62,39.62,39.62,71.24Z"
          fill="#ff870a"/>
        <g>
          <path
            d="M57.87,217.41c-26.41-6.78-40.21-22.96-45.67-31.07,3.92,17.04,11.86,30.41,23.77,39.89,9.62,7.65,21.83,12.95,37.09,16.04-2.66-2.93-5.1-6.09-7.3-9.48-3.16-4.88-5.84-10-7.88-15.37Z"
            fill="#ff5f0a"/>
          <path
            d="M227.76,217.41c-2.05,5.37-4.73,10.49-7.88,15.37-2.2,3.4-4.64,6.55-7.3,9.48,15.25-3.09,27.47-8.39,37.09-16.04,11.91-9.48,19.85-22.85,23.77-39.89-5.47,8.12-19.27,24.3-45.67,31.07Z"
            fill="#ff5f0a"/>
          <path
            d="M142.81,232.39h0c-63.21,0-83.4-27.71-83.4-27.71,5.39,16.44,16.85,31.2,31.49,40.35,.41,.19,.8,.43,1.13,.72,15.17,9.24,33.12,12.38,50.78,12.32h0c17.66,.05,35.61-3.08,50.78-12.32,.33-.29,.72-.53,1.13-.72,14.64-9.15,26.1-23.91,31.49-40.35,0,0-20.19,27.71-83.4,27.71Z"
            fill="#ff5f0a"/>
        </g>
        <path
          d="M206.94,83.02c-16.72-16.25-41.02-21.67-63.73-22.09-.13,0-.24-.03-.36-.03-.01,0-.03,0-.04,0-.01,0-.03,0-.04,0-.12,0-.23,.03-.36,.03-22.71,.41-47.01,5.83-63.73,22.09-5.65,5.38-10,11.83-13.59,18.76,0,0,21.55-28.03,77.71-28.03s77.71,28.03,77.71,28.03c-3.58-6.93-7.94-13.37-13.59-18.76Z"
          fill="#ffc90a"/>
        <path
          d="M61.89,91.88l.04-.04c2.37-5.11,5.36-9.77,8.89-13.93-6.59,2.18-14.27,5.34-21.89,9.88-19.85,11.82-32.3,28.37-37.22,49.38,8.7-30.89,50.17-45.29,50.17-45.29Z"
          fill="#ffc90a"/>
        <path
          d="M223.74,91.88l-.04-.04c-2.37-5.11-5.36-9.77-8.89-13.93,6.59,2.18,14.27,5.34,21.89,9.88,19.85,11.82,32.3,28.37,37.22,49.38-8.7-30.89-50.17-45.29-50.17-45.29Z"
          fill="#ffc90a"/>
        <path
          d="M150.16,37.22c-2.5,7.13-7.35,4.4-7.35,4.4h0c-1.99-1.36-3.31-2.91-4.16-4.4-.71,1.98-1.37,3.96-2.01,5.92-.84,3.4-5.78,2.9-5.87-.6,0-.05,0-.11,0-.16-1.51,1.55-3.14,2.99-4.73,4.27,.24,1.65,.45,3.26,.61,4.75,2.97-.96,21.35-.44,25.2-.26-.05-.91-.07-1.82-.07-2.73,0-.16,0-.32,.01-.48,.01-.87,.05-1.73,.13-2.6,.51-8.26,3.16-16.39,7.16-23.59,.62-1.07,1.26-2.13,1.92-3.16h0s-6.12,5.15-10.84,18.64Z"
          fill="#6db615"/>
        <path
          d="M131.13,37.87l.04-.17c.05-.37,.08-.74,.14-1.12,.21-1.3,.11-2.62-.36-3.85l-.04-.11c-2.21-5.56-6.36-10.73-11.61-13.59-6.77-3.67-15.69-3.41-21.6,.81,.26-.12,23.39-10.79,33.43,18.04Z"
          fill="#def000"/>
        <g>
          <path
            d="M162.49,13.36c-.33-.3-.83-.34-1.21-.1-.52,.33-1,.67-1.47,1.01,.94,.66,1.82,1.45,2.5,2.4,.25-.35,.47-.72,.73-1.07,.41-.57,.38-1.36-.13-1.84-.14-.13-.28-.26-.42-.39Z"
            fill="#def000"/>
          <path
            d="M154.34,11.7c.87,.26,2.22,.73,3.63,1.46,.31-.33,.62-.64,.93-.89,.55-.44,.49-1.32-.12-1.68-.45-.26-.89-.48-1.33-.67-.52-.22-1.13-.13-1.55,.25-.53,.49-1.04,1.01-1.56,1.52Z"
            fill="#def000"/>
        </g>
        <path
          d="M46.56,130.92c-5.44,7.71-12.99,23.96-.39,44.39,1.18,1.92,4.14,1.09,4.16-1.16l.29-41.9c.02-2.18-2.8-3.11-4.06-1.33Z"
          fill="#ff5f0a"/>
        <path
          d="M238.8,175.44c5.44-7.71,12.99-23.96,.39-44.39-1.18-1.92-4.14-1.09-4.16,1.16l-.29,41.9c-.02,2.18,2.8,3.11,4.06,1.33Z"
          fill="#ff5f0a"/>
        <path
          d="M52.11,129.88c-1.54,10.38-3.01,27.63-.34,47.51,.29,2.13-2.41,2.92-3.12,.91-4.13-11.73-7.84-30.5,.38-49.47,.82-1.9,3.38-1.03,3.08,1.05Z"
          fill="#491800"/>
        <path
          d="M232.42,177.35c1.54-10.38,3.01-27.63,.34-47.51-.29-2.13,2.41-2.92,3.12-.91,4.13,11.73,7.84,30.5-.38,49.47-.82,1.9-3.38,1.03-3.08-1.05Z"
          fill="#491800"/>
      </g>
      <g>
        <g>
          <path
            d="M205.69,106.12c-1.01-2.37-3.75-3.46-6.12-2.45l-40.19,17.23c-2.37,1.01-3.46,3.75-2.45,6.12,.76,1.77,2.48,2.83,4.29,2.83,.28,0,.56-.03,.84-.08-.09,.7-.15,1.4-.15,2.12,0,9.37,7.6,16.97,16.97,16.97s16.97-7.6,16.97-16.97c0-5.55-2.68-10.47-6.8-13.56l14.19-6.08c2.37-1.01,3.46-3.75,2.45-6.12Z"
            fill="#491800"/>
          <path
            d="M126.25,120.9l-40.19-17.23c-2.36-1.01-5.11,.08-6.12,2.45s.08,5.11,2.45,6.12l14.19,6.08c-4.12,3.1-6.8,8.01-6.8,13.56,0,9.37,7.6,16.97,16.97,16.97s16.97-7.6,16.97-16.97c0-.72-.06-1.43-.15-2.12,.28,.05,.56,.08,.84,.08,1.81,0,3.53-1.06,4.29-2.83,1.01-2.37-.08-5.11-2.45-6.12Z"
            fill="#491800"/>
        </g>
        <g>
          <circle cx="113.34" cy="132.21" r="3.96" fill="#fff"/>
          <circle cx="172.29" cy="132.21" r="3.96" fill="#fff"/>
        </g>
        <path
          d="M198.5,162.84c-1.71-1.87-4.14-2.93-6.67-2.93l-.11,.03c-31.94,9.63-66,9.62-97.93-.03h0c-2.52,0-4.96,1.07-6.66,2.93-1.72,1.88-2.57,4.42-2.34,6.97,2.69,30.24,27.64,53.03,58.03,53.03,15.59,0,30.21-6.06,41.2-17.08,9.64-9.63,15.63-22.39,16.84-35.95,.23-2.54-.63-5.09-2.34-6.97Z"
          fill="#491800"/>
        <path
          d="M175.82,200.83c-17.8,16.86-48.67,16.52-66.13,.02-1.43-1.35-1.29-3.7,.29-4.87,12.46-9.25,23.9-7.55,30.36,.19,1.27,1.52,3.57,1.47,4.89,0,5.82-6.5,17.63-9.14,30.17-.31,1.66,1.17,1.9,3.58,.43,4.98Z"
          fill="#e61c26"/>
        <g>
          <path d="M177.31,172.77l11.86-3.09-2.2,7.83c-.49,1.73-2.65,2.29-3.92,1.02l-5.74-5.76Z" fill="#fff"/>
          <path d="M108.32,172.77l-11.86-3.09,2.2,7.83c.49,1.73,2.65,2.29,3.92,1.02l5.74-5.76Z" fill="#fff"/>
        </g>
      </g>
    </g>
  </g>
</svg>
